<svg version="1.1" preserveAspectRatio="none" xmlns="http://www.w3.org/2000/svg" width="500" height="500" viewBox="0 0 500 500"><rect width="100%" height="100%" fill="#5CB8FF" fill-opacity="1"/><svg viewBox="94.2372 209.5089 363.3446 280.1169" width="333" height="256.72303290044766" x="83.5px" y="121.6385px" xmlns="http://www.w3.org/2000/svg" xmlns:xlink="http://www.w3.org/1999/xlink" preserveAspectRatio="none"><defs></defs><style>.aLgOaV3zRcolors-3 {fill:#58FF75;fill-opacity:1;}.aLgOaV3zRcolors-4 {fill:#3A9AF9;fill-opacity:1;}.aLgOaV3zRcolors-5 {fill:#3288DD;fill-opacity:1;}.aLgOaV3zRcolors-6 {fill:#00B0BE;fill-opacity:1;}.aLgOaV3zRcolors-7 {fill:#89FF9D;fill-opacity:1;}.companyName {fill:#FFFFFF;fill-opacity:1;}.icon1 {fill:#005477;fill-opacity:1;}.icon2 {fill:#FFFFFF;fill-opacity:1;}.icon3 {fill:#007B8B;fill-opacity:1;}.icon3-str {stroke:#007B8B;stroke-opacity:1;}.text {fill:#FFFFFF;fill-opacity:1;}</style><g opacity="1" transform="rotate(0 129.5592 467.1258)">
<svg width="292.7007" height="22.5" x="129.5592" y="467.1258" version="1.1" preserveAspectRatio="none" viewBox="1.12 -31 466.72 35.88">
  <g transform="matrix(1 0 0 1 0 0)" class="text"><path id="id-6izo4zJp20" d="M21.80-28.92L26.56-28.92L15.72-9.64L15.72 0L11.84 0L11.84-9.64L1.12-28.92L5.92-28.92L13.88-14.04L21.80-28.92Z M29.20-8.44Q29.20-10.88 30.38-12.90Q31.56-14.92 33.66-16.08Q35.76-17.24 38.40-17.24L38.40-17.24Q41.04-17.24 43.10-16.08Q45.16-14.92 46.30-12.92Q47.44-10.92 47.44-8.44L47.44-8.44Q47.44-5.96 46.30-3.94Q45.16-1.92 43.08-0.76Q41 0.40 38.32 0.40L38.32 0.40Q35.72 0.40 33.64-0.70Q31.56-1.80 30.38-3.80Q29.20-5.80 29.20-8.44L29.20-8.44ZM32.96-8.40Q32.96-6.84 33.66-5.52Q34.36-4.20 35.58-3.44Q36.80-2.68 38.28-2.68L38.28-2.68Q40.60-2.68 42.12-4.32Q43.64-5.96 43.64-8.40L43.64-8.40Q43.64-10.84 42.12-12.50Q40.60-14.16 38.28-14.16L38.28-14.16Q36.76-14.16 35.56-13.38Q34.36-12.60 33.66-11.28Q32.96-9.96 32.96-8.40L32.96-8.40Z M68.12-16.56L71.84-16.56L71.84 0L68.48 0L68.24-3.16Q67.40-1.48 65.64-0.42Q63.88 0.64 61.72 0.64L61.72 0.64Q59.44 0.64 57.98-0.74Q56.52-2.12 56.44-4.32L56.44-4.32L56.44-16.56L60.16-16.56L60.16-5.64Q60.24-4.24 60.98-3.42Q61.72-2.60 63.20-2.56L63.20-2.56Q64.56-2.56 65.68-3.38Q66.80-4.20 67.46-5.64Q68.12-7.08 68.12-8.84L68.12-8.84L68.12-16.56Z M85.92-12.64Q86.56-14 87.74-15.04Q88.92-16.08 90.24-16.64Q91.56-17.20 92.56-17.24L92.56-17.24L92.40-13.52Q90.60-13.60 89.14-12.80Q87.68-12 86.86-10.58Q86.04-9.16 86.04-7.56L86.04-7.56L86.04 0L82.32 0L82.32-16.56L85.64-16.56L85.92-12.64Z M141.84-28.92L141.84 0L137.96 0L137.96-12.68L122.80-12.68L122.80 0L118.92 0L118.92-28.92L122.80-28.92L122.80-16.40L137.96-16.40L137.96-28.92L141.84-28.92Z M161-2.80Q163.08-2.80 165.04-4.24L165.04-4.24L166.76-1.48Q165.44-0.60 163.90-0.10Q162.36 0.40 160.92 0.40L160.92 0.40Q158.16 0.40 156.10-0.74Q154.04-1.88 152.92-3.88Q151.80-5.88 151.80-8.40L151.80-8.40Q151.80-10.84 153.02-12.86Q154.24-14.88 156.36-16.06Q158.48-17.24 161-17.24L161-17.24Q164.24-17.24 166.42-15.34Q168.60-13.44 169.40-10.04L169.40-10.04L156.28-5.44Q157-4.20 158.22-3.50Q159.44-2.80 161-2.80L161-2.80ZM160.72-14.28Q158.44-14.28 156.96-12.68Q155.48-11.08 155.48-8.60L155.48-8.60Q155.48-8 155.52-7.68L155.52-7.68L165.16-11.24Q164.56-12.60 163.46-13.44Q162.36-14.28 160.72-14.28L160.72-14.28Z M191.60-16.56L195.04-16.56L195.04 0L191.32 0L191.32-2.72Q190.44-1.56 188.76-0.58Q187.08 0.40 184.96 0.40L184.96 0.40Q182.60 0.40 180.70-0.62Q178.80-1.64 177.70-3.60Q176.60-5.56 176.60-8.28L176.60-8.28Q176.60-11 177.74-13.02Q178.88-15.04 180.82-16.14Q182.76-17.24 185.12-17.24L185.12-17.24Q187.24-17.24 188.80-16.32Q190.36-15.40 191.32-13.92L191.32-13.92L191.60-16.56ZM185.96-2.68Q188-2.68 189.46-3.82Q190.92-4.96 191.32-6.92L191.32-6.92L191.32-10.20Q190.84-11.96 189.32-13.06Q187.80-14.16 185.84-14.16L185.84-14.16Q184.36-14.16 183.10-13.44Q181.84-12.72 181.10-11.42Q180.36-10.12 180.36-8.48L180.36-8.48Q180.36-6.88 181.12-5.56Q181.88-4.24 183.16-3.46Q184.44-2.68 185.96-2.68L185.96-2.68Z M205.52-31L209.24-31L209.24 0L205.52 0L205.52-31Z M221.32-23.84L225.08-23.84L225.08-16.52L229.60-16.52L229.60-13.56L225.08-13.56L225.08 0L221.32 0L221.32-13.56L218.28-13.56L218.28-16.52L221.32-16.52L221.32-23.84Z M248.40-17.20Q250.72-17.20 252.24-15.82Q253.76-14.44 253.80-12.24L253.80-12.24L253.80 0L250.04 0L250.04-10.96Q249.96-12.36 249.20-13.16Q248.44-13.96 246.92-14L246.92-14Q245.48-14 244.32-13.20Q243.16-12.40 242.50-10.96Q241.84-9.52 241.84-7.76L241.84-7.76L241.84 0L238.12 0L238.12-31L241.76-31L241.76-13.56Q242.68-15.20 244.42-16.20Q246.16-17.20 248.40-17.20L248.40-17.20Z M267.64-3.52L265.32 2.08L264.16 4.88L261.12 4.88L262.16 2.08Q263.96-2.76 264.24-3.52L264.24-3.52L267.64-3.52Z M292.12-14.44Q292.12-18.40 294.12-21.80Q296.12-25.20 299.50-27.22Q302.88-29.24 306.88-29.24L306.88-29.24Q310.84-29.24 314.24-27.22Q317.64-25.20 319.66-21.80Q321.68-18.40 321.68-14.44L321.68-14.44Q321.68-10.44 319.68-7.04Q317.68-3.64 314.26-1.66Q310.84 0.32 306.88 0.32L306.88 0.32Q302.88 0.32 299.48-1.64Q296.08-3.60 294.10-6.98Q292.12-10.36 292.12-14.44L292.12-14.44ZM296.12-14.40Q296.12-11.44 297.56-8.92Q299-6.40 301.50-4.92Q304-3.44 306.96-3.44L306.96-3.44Q309.92-3.44 312.38-4.90Q314.84-6.36 316.26-8.90Q317.68-11.44 317.68-14.44L317.68-14.44Q317.68-17.44 316.24-20Q314.80-22.56 312.32-24.04Q309.84-25.52 306.88-25.52L306.88-25.52Q303.92-25.52 301.44-24.02Q298.96-22.52 297.54-19.96Q296.12-17.40 296.12-14.40L296.12-14.40Z M341.56-17.20Q343.88-17.20 345.40-15.82Q346.92-14.44 346.96-12.24L346.96-12.24L346.96 0L343.20 0L343.20-10.96Q343.12-12.36 342.36-13.16Q341.60-13.96 340.08-14L340.08-14Q337.88-14 336.44-12.24Q335.00-10.48 335.00-7.76L335.00-7.76L335.00 0L331.28 0L331.28-16.56L334.64-16.56L334.88-13.36Q335.76-15.16 337.52-16.18Q339.28-17.20 341.56-17.20L341.56-17.20Z M372.84-28.92L392.04-28.92L392.04-25.20L384.28-25.20L384.28 0L380.40 0L380.40-25.20L372.84-25.20L372.84-28.92Z M400.48-16.56L404.20-16.56L404.20 0L400.48 0L400.48-16.56ZM400.20-22.52Q400.20-23.40 400.88-24Q401.56-24.60 402.44-24.60L402.44-24.60Q403.32-24.60 403.98-24Q404.64-23.40 404.64-22.52L404.64-22.52Q404.64-21.64 403.98-21.04Q403.32-20.44 402.44-20.44L402.44-20.44Q401.56-20.44 400.88-21.04Q400.20-21.64 400.20-22.52L400.20-22.52Z M435.92-17.24Q438.32-17.24 439.74-15.88Q441.16-14.52 441.24-12.28L441.24-12.28L441.24 0L437.52 0L437.52-10.92Q437.40-13.84 434.88-14L434.88-14Q433.44-14 432.30-13.14Q431.16-12.28 430.52-10.88Q429.88-9.48 429.84-7.88L429.84-7.88L429.84 0L426.08 0L426.08-10.92Q425.96-13.84 423.36-14L423.36-14Q421.96-14 420.82-13.14Q419.68-12.28 419.04-10.86Q418.40-9.44 418.40-7.84L418.40-7.84L418.40 0L414.68 0L414.68-16.56L418.04-16.56L418.32-13.44Q419.28-15.24 420.94-16.24Q422.60-17.24 424.72-17.24L424.72-17.24Q426.72-17.24 428.08-16.30Q429.44-15.36 429.84-13.72L429.84-13.72Q430.88-15.36 432.48-16.30Q434.08-17.24 435.92-17.24L435.92-17.24Z M459.44-2.80Q461.52-2.80 463.48-4.24L463.48-4.24L465.20-1.48Q463.88-0.60 462.34-0.10Q460.80 0.40 459.36 0.40L459.36 0.40Q456.60 0.40 454.54-0.74Q452.48-1.88 451.36-3.88Q450.24-5.88 450.24-8.40L450.24-8.40Q450.24-10.84 451.46-12.86Q452.68-14.88 454.80-16.06Q456.92-17.24 459.44-17.24L459.44-17.24Q462.68-17.24 464.86-15.34Q467.04-13.44 467.84-10.04L467.84-10.04L454.72-5.44Q455.44-4.20 456.66-3.50Q457.88-2.80 459.44-2.80L459.44-2.80ZM459.16-14.28Q456.88-14.28 455.40-12.68Q453.92-11.08 453.92-8.60L453.92-8.60Q453.92-8 453.96-7.68L453.96-7.68L463.60-11.24Q463.00-12.60 461.90-13.44Q460.80-14.28 459.16-14.28L459.16-14.28Z"/></g>
</svg>
</g><g opacity="1" transform="rotate(0 94.2372 399.1258)">
<svg width="363.3446" height="50" x="94.2372" y="399.1258" version="1.1" preserveAspectRatio="none" viewBox="0.96 -29.2 215.68 29.68">
  <g transform="matrix(1 0 0 1 0 0)" class="companyName"><path id="id-D6z1nYkh8" d="M11.24-17.36Q12.76-18.44 14.80-19.18Q16.84-19.92 19.28-19.92L19.28-19.92Q24.24-19.92 25.60-16.96L25.60-16.96Q27.12-18.20 29.30-19.06Q31.48-19.92 34.16-19.92L34.16-19.92Q37.88-19.92 39.48-18.36Q41.08-16.80 41.08-13.68L41.08-13.68L41.08-1.92Q41.08-1.48 41.26-1.32Q41.44-1.16 42.04-1.04L42.04-1.04L43.44-0.72L43.44 0L35.12 0Q34.04 0 33.56-0.56Q33.08-1.12 33.08-2.24L33.08-2.24L33.08-14.40Q33.08-16.20 32.50-16.96Q31.92-17.72 30.56-17.72L30.56-17.72Q28.40-17.72 25.96-15.96L25.96-15.96Q26.20-14.96 26.20-13.68L26.20-13.68L26.20-1.92Q26.20-1.48 26.38-1.32Q26.56-1.16 27.16-1.04L27.16-1.04L28.56-0.72L28.56 0L20.24 0Q19.16 0 18.68-0.56Q18.20-1.12 18.20-2.24L18.20-2.24L18.20-14.40Q18.20-16.20 17.62-16.96Q17.04-17.72 15.68-17.72L15.68-17.72Q13.56-17.72 11.32-16.12L11.32-16.12L11.32-1.92Q11.32-1.48 11.50-1.30Q11.68-1.12 12.24-1L12.24-1L13.60-0.72L13.60 0L0.96 0L0.96-0.72L2.36-1.04Q2.96-1.16 3.14-1.32Q3.32-1.48 3.32-1.92L3.32-1.92L3.32-17.04Q3.32-17.48 3.14-17.64Q2.96-17.80 2.36-17.92L2.36-17.92L0.96-18.24L0.96-18.96L10.56-20.16L11.24-20.16L11.24-17.36Z M54.56-10.24Q54.60-5.80 55.98-3.48Q57.36-1.16 61.16-1.16L61.16-1.16Q63.04-1.16 64.50-1.72Q65.96-2.28 67.52-3.32L67.52-3.32L68.04-2.56Q64.32 0.48 58.20 0.48L58.20 0.48Q52.68 0.48 49.50-2.18Q46.32-4.84 46.32-9.96L46.32-9.96Q46.32-14.80 49.56-17.36Q52.80-19.92 58.64-19.92L58.64-19.92Q61.96-19.92 64.24-18.88Q66.52-17.84 67.62-16.10Q68.72-14.36 68.72-12.24L68.72-12.24Q68.72-11.16 68.52-10.24L68.52-10.24L54.56-10.24ZM58.40-18.96Q56.20-18.96 55.40-17.12Q54.60-15.28 54.56-11.28L54.56-11.28L61.28-11.28L61.28-14.28Q61.28-16.72 60.70-17.84Q60.12-18.96 58.40-18.96L58.40-18.96Z M91.28 0Q90.20 0 89.72-0.56Q89.24-1.12 89.24-2.24L89.24-2.24Q86.68 0.48 82.28 0.48L82.28 0.48Q77.88 0.48 75.26-2.04Q72.64-4.56 72.64-9.92L72.64-9.92Q72.64-15.08 75.24-17.50Q77.84-19.92 82.28-19.92L82.28-19.92Q84.68-19.92 86.30-19.36Q87.92-18.80 89.16-17.92L89.16-17.92L89.16-26.08Q89.16-26.52 88.98-26.68Q88.80-26.84 88.20-26.96L88.20-26.96L86.80-27.28L86.80-28L96.40-29.20L97.16-29.20L97.16-1.92Q97.16-1.48 97.34-1.32Q97.52-1.16 98.12-1.04L98.12-1.04L99.52-0.72L99.52 0L91.28 0ZM84.64-1.24Q87-1.24 89.16-3.48L89.16-3.48L89.16-16.72Q87.24-18.24 84.84-18.24L84.84-18.24Q82.64-18.24 81.76-16.30Q80.88-14.36 80.88-9.92L80.88-9.92Q80.88-6.76 81.22-4.90Q81.56-3.04 82.38-2.14Q83.20-1.24 84.64-1.24L84.64-1.24Z M107.88-22.48Q106-22.48 104.88-23.34Q103.76-24.20 103.76-25.84L103.76-25.84Q103.76-27.48 104.88-28.34Q106-29.20 107.88-29.20L107.88-29.20Q109.76-29.20 110.88-28.34Q112-27.48 112-25.84L112-25.84Q112-24.20 110.88-23.34Q109.76-22.48 107.88-22.48L107.88-22.48ZM101.52 0L101.52-0.72L102.92-1.04Q103.52-1.16 103.70-1.32Q103.88-1.48 103.88-1.92L103.88-1.92L103.88-17.04Q103.88-17.48 103.70-17.64Q103.52-17.80 102.92-17.92L102.92-17.92L101.52-18.24L101.52-18.96L111.12-20.16L111.88-20.16L111.88-1.92Q111.88-1.48 112.06-1.32Q112.24-1.16 112.84-1.04L112.84-1.04L114.24-0.72L114.24 0L101.52 0Z M118.76-18.40L116.16-18.40L116.16-19.44Q117.40-19.44 118-19.64Q118.60-19.84 119.20-20.36L119.20-20.36L126.32-26.76L126.68-26.76L126.68-19.44L131.84-19.44L131.84-18.40L126.68-18.40L126.68-4.96Q126.68-3.04 127.14-2.26Q127.60-1.48 128.72-1.48L128.72-1.48Q129.60-1.48 130.28-1.84Q130.96-2.20 131.76-3.08L131.76-3.08L132.40-2.32Q129.88 0.48 124.96 0.48L124.96 0.48Q121.64 0.48 120.20-0.92Q118.76-2.32 118.76-5.28L118.76-5.28L118.76-18.40Z M140.52-22.48Q138.64-22.48 137.52-23.34Q136.40-24.20 136.40-25.84L136.40-25.84Q136.40-27.48 137.52-28.34Q138.64-29.20 140.52-29.20L140.52-29.20Q142.40-29.20 143.52-28.34Q144.64-27.48 144.64-25.84L144.64-25.84Q144.64-24.20 143.52-23.34Q142.40-22.48 140.52-22.48L140.52-22.48ZM134.16 0L134.16-0.72L135.56-1.04Q136.16-1.16 136.34-1.32Q136.52-1.48 136.52-1.92L136.52-1.92L136.52-17.04Q136.52-17.48 136.34-17.64Q136.16-17.80 135.56-17.92L135.56-17.92L134.16-18.24L134.16-18.96L143.76-20.16L144.52-20.16L144.52-1.92Q144.52-1.48 144.70-1.32Q144.88-1.16 145.48-1.04L145.48-1.04L146.88-0.72L146.88 0L134.16 0Z M159.16-17.36Q160.68-18.44 162.72-19.18Q164.76-19.92 167.20-19.92L167.20-19.92Q172.16-19.92 173.52-16.96L173.52-16.96Q175.04-18.20 177.22-19.06Q179.40-19.92 182.08-19.92L182.08-19.92Q185.80-19.92 187.40-18.36Q189-16.80 189-13.68L189-13.68L189-1.92Q189-1.48 189.18-1.32Q189.36-1.16 189.96-1.04L189.96-1.04L191.36-0.72L191.36 0L183.04 0Q181.96 0 181.48-0.56Q181-1.12 181-2.24L181-2.24L181-14.40Q181-16.20 180.42-16.96Q179.84-17.72 178.48-17.72L178.48-17.72Q176.32-17.72 173.88-15.96L173.88-15.96Q174.12-14.96 174.12-13.68L174.12-13.68L174.12-1.92Q174.12-1.48 174.30-1.32Q174.48-1.16 175.08-1.04L175.08-1.04L176.48-0.72L176.48 0L168.16 0Q167.08 0 166.60-0.56Q166.12-1.12 166.12-2.24L166.12-2.24L166.12-14.40Q166.12-16.20 165.54-16.96Q164.96-17.72 163.60-17.72L163.60-17.72Q161.48-17.72 159.24-16.12L159.24-16.12L159.24-1.92Q159.24-1.48 159.42-1.30Q159.60-1.12 160.16-1L160.16-1L161.52-0.72L161.52 0L148.88 0L148.88-0.72L150.28-1.04Q150.88-1.16 151.06-1.32Q151.24-1.48 151.24-1.92L151.24-1.92L151.24-17.04Q151.24-17.48 151.06-17.64Q150.88-17.80 150.28-17.92L150.28-17.92L148.88-18.24L148.88-18.96L158.48-20.16L159.16-20.16L159.16-17.36Z M202.48-10.24Q202.52-5.80 203.90-3.48Q205.28-1.16 209.08-1.16L209.08-1.16Q210.96-1.16 212.42-1.72Q213.88-2.28 215.44-3.32L215.44-3.32L215.96-2.56Q212.24 0.48 206.12 0.48L206.12 0.48Q200.60 0.48 197.42-2.18Q194.24-4.84 194.24-9.96L194.24-9.96Q194.24-14.80 197.48-17.36Q200.72-19.92 206.56-19.92L206.56-19.92Q209.88-19.92 212.16-18.88Q214.44-17.84 215.54-16.10Q216.64-14.36 216.64-12.24L216.64-12.24Q216.64-11.16 216.44-10.24L216.44-10.24L202.48-10.24ZM206.32-18.96Q204.12-18.96 203.32-17.12Q202.52-15.28 202.48-11.28L202.48-11.28L209.20-11.28L209.20-14.28Q209.20-16.72 208.62-17.84Q208.04-18.96 206.32-18.96L206.32-18.96Z"/></g>
</svg>
</g><g opacity="1" transform="rotate(0 185.0733 209.5089)">
<svg width="181.6723" height="159.6169" x="185.0733" y="209.5089" version="1.1" preserveAspectRatio="none" viewBox="1.545304775238037 7.42689323425293 96.90735626220703 85.14254760742188">
  <g transform="matrix(1 0 0 1 0 0)" class="icon1"><path d="m39.617 10.242c3.8594 1.3203 7.1211 3.9727 9.1797 7.4688 0.26562 0.45312 0.84766 0.60156 1.3008 0.33594s0.60156-0.84766 0.33594-1.3008c-2.2891-3.8867-5.9141-6.8359-10.203-8.3047-9.9258-3.375-20.738 1.9492-24.113 11.859l-6.7812 19.883v0.007812l-6.7734 19.879c-3.3789 9.918 1.9336 20.734 11.844 24.109 2.0234 0.69141 4.0859 1.0156 6.1133 1.0156 7.9102 0 15.312-4.9805 18-12.875l6.668-19.566 7.2422 12.324 10.645 18.109c2.5703 4.3711 6.6914 7.4844 11.605 8.7617 1.5938 0.41406 3.2109 0.62109 4.8164 0.62109 3.3359 0 6.625-0.88672 9.5742-2.6211 4.3789-2.5742 7.4922-6.6953 8.7656-11.609 1.2734-4.9102 0.55859-10.027-2.0117-14.398l-21.289-36.219c-2.5703-4.3711-6.6914-7.4844-11.605-8.7617-4.9141-1.2773-10.023-0.56641-14.391 2-9.0312 5.3086-12.062 16.977-6.7539 26.008l2.1328 3.6289-0.10938 0.32812-19.113-6.5078-13.25-4.5195 6.4766-18.984c3.0352-8.9219 12.77-13.711 21.695-10.672zm-2.8945 61.469c-3.043 8.9258-12.777 13.711-21.703 10.672-8.9219-3.0391-13.699-12.777-10.66-21.703l6.4688-18.98 17.164 5.8477 15.199 5.1797zm59.277 6.1523c-1.1484 4.4219-3.9492 8.1328-7.8867 10.449-3.9297 2.3086-8.5273 2.9492-12.953 1.8008-4.4219-1.1484-8.1328-3.9492-10.445-7.8828l-10.164-17.293 29.477-17.328 10.164 17.293c2.3125 3.9414 2.957 8.543 1.8086 12.961zm-46.496-55.262c2.6523-1.5586 5.6133-2.3594 8.6172-2.3594 1.4453 0 2.8984 0.18359 4.3359 0.55859 4.4219 1.1484 8.1328 3.9492 10.445 7.8828l10.164 17.289-29.477 17.328-10.164-17.293c-4.7773-8.1289-2.0508-18.629 6.0781-23.406z"></path><path d="m24.23 21.445-3.4609 10.156c-0.16797 0.49609 0.09375 1.0352 0.59375 1.207 0.10156 0.035156 0.20312 0.050781 0.30469 0.050781 0.39453 0 0.76562-0.25 0.89844-0.64453l3.4609-10.156c0.16797-0.49609-0.09375-1.0352-0.59375-1.207-0.49219-0.17187-1.0352 0.097657-1.2031 0.59375z"></path><path d="m82.926 59.754c-0.45312 0.26562-0.60156 0.84766-0.33594 1.3008l5.4375 9.25c0.17578 0.30078 0.49609 0.46875 0.82031 0.46875 0.16406 0 0.32812-0.042969 0.48047-0.13281 0.45312-0.26562 0.60156-0.84766 0.33594-1.3008l-5.4375-9.25c-0.26562-0.44922-0.84766-0.60156-1.3008-0.33594z"></path></g>
</svg>
</g></svg></svg>